<?xml version="1.0" encoding="iso-8859-1"?>
<!-- Generator: Adobe Illustrator 19.0.0, SVG Export Plug-In . SVG Version: 6.00 Build 0)  -->
<svg version="1.1" id="Layer_1" xmlns="http://www.w3.org/2000/svg" xmlns:xlink="http://www.w3.org/1999/xlink" x="0px" y="0px"
	 viewBox="0 0 511.996 511.996" style="enable-background:new 0 0 511.996 511.996;" xml:space="preserve">
<path style="fill:#656D78;" d="M390.994,56c0-3-16.344-32-16.344-32l-36-8l-67.663-6l-85.671,6l-45.328,14L120.66,74.655v108.343
	l13.328,61.719l6,50.281l69,32.328h104.006l35-19.328l38-57l9.312-66C395.307,184.998,390.994,58.999,390.994,56z"/>
<path style="fill:#FC6E51;" d="M483.993,399.997l-27.999-23.328c0,0-32-14.688-34-15.344s-47.344-21.999-47.344-21.999l-30-24.656
	l-56.687,15.188l-69.335-0.719l-45.312-5.812l-39.328,18c0,0-49.343,24.655-52.671,25.999S36.661,386.67,36.661,386.67
	l-15.344,22.998l4.672,95l467.316-6.672L483.993,399.997z"/>
<rect x="173.319" y="117.998" style="fill:#4FC2E9;" width="165.33" height="77.999"/>
<g>
	<rect x="120.659" y="419.328" style="fill:#FFCE54;" width="274.65" height="81.34"/>
	<polygon style="fill:#FFCE54;" points="338.65,319.998 329.994,411.324 374.65,407.996 374.65,347.997 	"/>
	<polygon style="fill:#FFCE54;" points="139.988,343.998 139.988,411.324 178.66,411.324 178.66,323.326 	"/>
</g>
<polygon style="fill:#EAC6BB;" points="308.65,327.326 281.308,330.67 243.987,330.67 188.66,327.326 185.316,330.67 
	187.988,352.669 212.66,365.653 244.659,370.669 274.651,370.669 322.65,355.997 329.994,327.326 "/>
<g>
	<path style="fill:#080808;" d="M460.213,365.028l-1.812-0.531c-26.469-7.094-35.406-13.938-47.219-18.405
		c-38.656-14.75-50.875-25.688-54.656-31.531c8.094-7.312,15.5-16.109,22.062-26.312c19.844-30.781,26.906-66,26.906-88.688V95.499
		c0-36.094-5.375-57.78-18-72.499C373.869,7.094,352.338,0,317.682,0H194.3c-27.234,0-48.578,7.531-63.453,22.406
		c-16.14,16.141-24.328,40.733-24.328,73.093c0,0,0,42.375,0,104.062c0,35.938,9.609,69.594,27.093,94.781
		c5.969,8.594,12.75,16.062,20.266,22.375c-5.234,6.172-18.688,16.266-53.078,29.375c-11.781,4.468-20.734,11.312-47.203,18.405
		l-1.812,0.531c-24.094,7.969-40.312,30.312-40.312,55.53v91.438h244.529h244.521v-91.438
		C500.524,395.341,484.306,372.997,460.213,365.028z M362.65,347.06v58.265h-21.312v-75.482
		C346.588,336.217,354.15,341.951,362.65,347.06z M383.869,426.652v64H127.863v-64H383.869z M225.144,341.342h61.695
		c11.655,0,22.749-1.781,33.155-5.234v10.515c-8.312,5.156-29.969,16.031-64.132,16.031c-34.156,0-55.625-10.859-63.859-16v-9.78
		C202.347,339.81,213.425,341.342,225.144,341.342z M192.003,370.872c13.547,6.312,34.891,13.125,63.859,13.125
		c29.07,0,50.538-6.875,64.132-13.188v34.515H192.003V370.872z M127.848,199.56c0-61.687,0-104.062,0-104.062
		c0-50.593,21.125-74.155,66.453-74.155h123.381c27.875,0,44.406,4.781,53.625,15.547c8.875,10.375,12.844,28.452,12.844,58.608
		V199.56c0,18.766-6.156,50.219-23.5,77.125c-12.719,19.751-35.876,43.313-73.812,43.313h-61.695
		c-31.688,0-56.593-12.719-74.015-37.828C136.332,260.842,127.848,230.732,127.848,199.56z M170.66,329.842v75.482h-21.328v-58.265
		C157.863,341.967,165.426,336.217,170.66,329.842z M32.802,420.559c0-15.906,10.172-29.999,25.328-35.155l1.203-0.344
		c19.938-5.375,30.953-10.656,39.812-14.891c3.422-1.641,6.375-3.047,9.25-4.141c6.125-2.344,12.843-5.031,19.609-8.047v47.343
		H106.52v85.328H32.802V420.559z M479.181,490.652h-73.999v-85.328h-21.188v-47.343c6.781,3.016,13.5,5.703,19.625,8.047
		c2.844,1.094,5.812,2.5,9.25,4.141c8.844,4.234,19.844,9.516,39.812,14.891l1.188,0.344c15.155,5.156,25.312,19.249,25.312,35.155
		L479.181,490.652L479.181,490.652z"/>
	<path style="fill:#080808;" d="M170.004,85.327h171.99c5.906,0,10.656-4.766,10.656-10.672c0-5.875-4.75-10.656-10.656-10.656
		h-171.99c-5.891,0-10.672,4.781-10.672,10.656C159.332,80.561,164.113,85.327,170.004,85.327z"/>
	<path style="fill:#080808;" d="M351.994,213.326V106.655h-191.99v106.671H351.994z M263.69,127.999l-15.921,63.999h-20.781
		l16-63.999H263.69z M330.65,191.998h-60.897l15.93-63.999h44.968L330.65,191.998L330.65,191.998z M181.332,127.999h39.672
		l-16,63.999h-23.672V127.999z"/>
</g>
<g>
</g>
<g>
</g>
<g>
</g>
<g>
</g>
<g>
</g>
<g>
</g>
<g>
</g>
<g>
</g>
<g>
</g>
<g>
</g>
<g>
</g>
<g>
</g>
<g>
</g>
<g>
</g>
<g>
</g>
</svg>
